<svg xmlns="http://www.w3.org/2000/svg" viewBox="0 0 200 200" width="100%" height="100%">
  <defs>
    <linearGradient id="goldGrad" x1="0%" y1="0%" x2="100%" y2="100%">
      <stop offset="0%" stop-color="#F9E79F" />
      <stop offset="35%" stop-color="#D4AF37" />
      <stop offset="70%" stop-color="#AA771C" />
      <stop offset="100%" stop-color="#FDF4E3" />
    </linearGradient>
    <linearGradient id="plumGrad" x1="0%" y1="0%" x2="100%" y2="100%">
      <stop offset="0%" stop-color="#8F2A87" />
      <stop offset="100%" stop-color="#5E1758" />
    </linearGradient>
    <filter id="royalShadow" x="-20%" y="-20%" width="140%" height="140%">
      <feDropShadow dx="0" dy="4" stdDeviation="4" flood-color="#701A75" flood-opacity="0.3"/>
    </filter>
  </defs>
  <circle cx="100" cy="100" r="92" fill="url(#plumGrad)" stroke="url(#goldGrad)" stroke-width="4" filter="url(#royalShadow)" />
  <circle cx="100" cy="100" r="84" fill="none" stroke="url(#goldGrad)" stroke-width="1.5" stroke-dasharray="3,3" />
  <path d="M 45 125 L 155 125 L 148 138 L 52 138 Z" fill="url(#goldGrad)" />
  <rect x="54" y="128" width="92" height="4" rx="2" fill="#5E1758" opacity="0.6" />
  <path d="M 45 125 L 42 75 L 72 105 L 100 60 L 128 105 L 158 75 L 155 125 Z" fill="url(#goldGrad)" stroke="#AA771C" stroke-width="1.5" />
  <circle cx="42" cy="73" r="5" fill="#FFFFFF" stroke="#D4AF37" stroke-width="1.5" />
  <circle cx="100" cy="58" r="7" fill="#FFFFFF" stroke="#D4AF37" stroke-width="2" />
  <circle cx="158" cy="73" r="5" fill="#FFFFFF" stroke="#D4AF37" stroke-width="1.5" />
  <circle cx="72" cy="103" r="3.5" fill="#FDF4E3" />
  <circle cx="128" cy="103" r="3.5" fill="#FDF4E3" />
  <polygon points="100,75 106,88 119,94 106,100 100,113 94,100 81,94 94,88" fill="#FFFFFF" />
  <circle cx="100" cy="94" r="3" fill="#D4AF37" />
  <text x="100" y="158" text-anchor="middle" font-family="'Tajawal', 'Cairo', sans-serif" font-size="11" font-weight="900" fill="url(#goldGrad)" letter-spacing="2">LITTLE PRINCESSES</text>
  <text x="100" y="172" text-anchor="middle" font-family="'Tajawal', 'Cairo', sans-serif" font-size="8" font-weight="700" fill="#FBCFE8" letter-spacing="1">HAUTE COUTURE</text>
</svg>